<svg id="logo-cylander" xmlns="http://www.w3.org/2000/svg" xmlns:xlink="http://www.w3.org/1999/xlink" width="159.498" height="97.322" viewBox="0 0 159.498 97.322">
  <defs>
    <linearGradient id="linear-gradient" x1="4.815" y1="3.556" x2="-1.71" y2="-1.066" gradientUnits="objectBoundingBox">
      <stop offset="0" stop-color="#263184"/>
      <stop offset="1" stop-color="#de488d"/>
    </linearGradient>
    <linearGradient id="linear-gradient-2" x1="3.81" y1="3.148" x2="-1.783" y2="-1.604" xlink:href="#linear-gradient"/>
    <linearGradient id="linear-gradient-3" x1="3.909" y1="2.876" x2="-3.6" y2="-1.875" xlink:href="#linear-gradient"/>
    <linearGradient id="linear-gradient-4" x1="2.526" y1="2.463" x2="-2.827" y2="-2.289" xlink:href="#linear-gradient"/>
    <linearGradient id="linear-gradient-5" x1="2.302" y1="1.929" x2="-3.689" y2="-2.822" xlink:href="#linear-gradient"/>
    <linearGradient id="linear-gradient-6" x1="1.685" y1="1.484" x2="-4.608" y2="-3.264" xlink:href="#linear-gradient"/>
    <linearGradient id="linear-gradient-7" x1="1.282" y1="1.004" x2="-6.085" y2="-3.747" xlink:href="#linear-gradient"/>
    <linearGradient id="linear-gradient-8" x1="0.497" y1="0.624" x2="-5.568" y2="-4.127" xlink:href="#linear-gradient"/>
    <linearGradient id="linear-gradient-9" x1="1.76" y1="1.53" x2="-0.092" y2="-0.211" xlink:href="#linear-gradient"/>
    <linearGradient id="linear-gradient-10" x1="4.724" y1="3.491" x2="-1.802" y2="-1.131" xlink:href="#linear-gradient"/>
  </defs>
  <g id="Groupe_710" data-name="Groupe 710">
    <g id="Groupe_708" data-name="Groupe 708" transform="translate(48.218 1.567)">
      <path id="Tracé_422" data-name="Tracé 422" d="M83.616,1.73,60.037,5.243h0l23.579,6.979Z" transform="translate(-13.718 -0.559)" fill="#ed6d05"/>
      <path id="Tracé_423" data-name="Tracé 423" d="M44.9,42.627l7.643,14.321,11.156-6.2a24.166,24.166,0,0,0,12.422-21.11V8.35L44.916,42.611Z" transform="translate(-22.065 3.297)" fill="#ffda00"/>
      <path id="Tracé_424" data-name="Tracé 424" d="M81.978,12.006V10.835L57.592,3.73,46.673,2.1,34.82,10.139v6.219L50.771,46.267Z" transform="translate(-27.936 -0.343)" fill="#fcbe00"/>
      <path id="Tracé_425" data-name="Tracé 425" d="M41.136,36.561a22.954,22.954,0,0,0,2.437,1.582l11.156,6.2h0L47.086,30.01,41.12,36.561Z" transform="translate(-24.267 15.914)" fill="#ffe900"/>
      <path id="Tracé_426" data-name="Tracé 426" d="M30.47,11.11V28.043A24.131,24.131,0,0,0,40.455,47.57l5.966-6.551Z" transform="translate(-30.47 4.905)" fill="#f49800"/>
      <path id="Tracé_427" data-name="Tracé 427" d="M34.82.99v9.8L46.673,2.747Z" transform="translate(-27.936 -0.99)" fill="#ffdd4e"/>
    </g>
    <g id="Groupe_709" data-name="Groupe 709">
      <path id="Tracé_428" data-name="Tracé 428" d="M7.184,46.42C2.769,46.42,0,48.256,0,51.452v13.8c0,3.2,2.706,5.032,6.995,5.032s7.153-1.836,7.153-5.032V61.58H10.6v2.991c0,1.8-1.329,2.548-3.418,2.548-2.326,0-3.418-.744-3.418-2.548V52.133c0-1.741,1.092-2.548,3.418-2.548,2.089,0,3.418.807,3.418,2.548v2.991h3.545V51.452c0-3.2-2.706-5.032-6.963-5.032Z" transform="translate(0 27.039)" fill="url(#linear-gradient)"/>
      <path id="Tracé_429" data-name="Tracé 429" d="M20.225,57.9,15.968,46.62H11.98l6.377,14.986v8.229h3.766V61.606L28.485,46.62h-3.94Z" transform="translate(6.978 27.155)" fill="url(#linear-gradient-2)"/>
      <path id="Tracé_430" data-name="Tracé 430" d="M29.892,46.62H26.11V69.835h12.3V66.7H29.892Z" transform="translate(15.209 27.155)" fill="url(#linear-gradient-3)"/>
      <path id="Tracé_431" data-name="Tracé 431" d="M42.641,46.62,36.2,69.835h3.766L41.248,64.8H48.4l1.282,5.032h3.766L47.04,46.62H42.625Zm-.554,14.859,2.738-10.7,2.738,10.7H42.087Z" transform="translate(21.086 27.155)" fill="url(#linear-gradient-4)"/>
      <path id="Tracé_432" data-name="Tracé 432" d="M62.687,60.973l.063,1.962-.807-1.9L53.714,46.62H50.66V69.835h3.387V55.355l-.063-1.931.839,2.057L63,69.835h3.07V46.62H62.687Z" transform="translate(29.508 27.155)" fill="url(#linear-gradient-5)"/>
      <path id="Tracé_433" data-name="Tracé 433" d="M71.532,46.626H65.25V69.841h6.409c5.934,0,8.261-2.39,8.261-7.485V54.1c0-4.842-2.326-7.485-8.387-7.485ZM76.343,62.2c0,3.133-1.741,4.478-4.668,4.478H69.032V49.791h2.516c3.228,0,4.811,1.361,4.811,4.478V62.2Z" transform="translate(38.007 27.149)" fill="url(#linear-gradient-6)"/>
      <path id="Tracé_434" data-name="Tracé 434" d="M79.14,69.835H91.673V66.7H82.906V59.454h6.741V56.321H82.906V49.753h8.767V46.62H79.14Z" transform="translate(46.097 27.155)" fill="url(#linear-gradient-7)"/>
      <path id="Tracé_435" data-name="Tracé 435" d="M100.981,60.672c2.516-.839,3.545-2.674,3.545-5.254V52.934c0-3.972-2.057-6.314-7.485-6.314H91.17V69.835h3.766V61.226h2.358l4.842,8.609h4.257l-5.412-9.163Zm-.222-5.808c0,2.263-1.219,3.228-3.64,3.228H94.968V49.737h2.263c2.326,0,3.545,1.06,3.545,3.387v1.741Z" transform="translate(53.105 27.155)" fill="url(#linear-gradient-8)"/>
      <path id="Tracé_436" data-name="Tracé 436" d="M83.818,0,58.894,3.719,33.97,0V34.514A25.49,25.49,0,0,0,47.073,56.8l11.821,6.567L70.715,56.8a25.49,25.49,0,0,0,13.1-22.281Zm-2.69,34.514A22.827,22.827,0,0,1,69.4,54.453L58.894,60.292,48.386,54.453A22.827,22.827,0,0,1,36.66,34.514V3.117L58.894,6.441,81.128,3.117Z" transform="translate(19.787)" fill="url(#linear-gradient-9)"/>
      <path id="Tracé_437" data-name="Tracé 437" d="M44.09,16.212v13.8c0,3.2,2.706,5.032,6.995,5.032s7.153-1.836,7.153-5.032V26.34H54.693v2.991c0,1.8-1.329,2.548-3.418,2.548-2.326,0-3.418-.744-3.418-2.548V16.893c0-1.741,1.092-2.548,3.418-2.548,2.089,0,3.418.807,3.418,2.548v2.991h3.545V16.212c0-3.2-2.706-5.032-6.963-5.032s-7.184,1.836-7.184,5.032Z" transform="translate(25.682 6.512)" fill="url(#linear-gradient-10)"/>
    </g>
  </g>
</svg>
